<?xml version="1.0" encoding="UTF-8"?>
<svg xmlns="http://www.w3.org/2000/svg" xmlns:xlink="http://www.w3.org/1999/xlink" width="360pt" height="360pt" viewBox="0 0 360 360" version="1.1">
<defs>
<clipPath id="clip1">
  <path d="M 29 110 L 359.039062 110 L 359.039062 196 L 29 196 Z M 29 110 "/>
</clipPath>
<clipPath id="clip2">
  <path d="M 14 183 L 359.039062 183 L 359.039062 257 L 14 257 Z M 14 183 "/>
</clipPath>
<clipPath id="clip3">
  <path d="M 20 103 L 359.039062 103 L 359.039062 199 L 20 199 Z M 20 103 "/>
</clipPath>
<clipPath id="clip4">
  <path d="M 30 164 L 359.039062 164 L 359.039062 234 L 30 234 Z M 30 164 "/>
</clipPath>
<clipPath id="clip5">
  <path d="M 11 161 L 359.039062 161 L 359.039062 239 L 11 239 Z M 11 161 "/>
</clipPath>
<clipPath id="clip6">
  <path d="M 35 113 L 359.039062 113 L 359.039062 196 L 35 196 Z M 35 113 "/>
</clipPath>
<clipPath id="clip7">
  <path d="M 33 54 L 359.039062 54 L 359.039062 175 L 33 175 Z M 33 54 "/>
</clipPath>
<clipPath id="clip8">
  <path d="M 35 191 L 359.039062 191 L 359.039062 320 L 35 320 Z M 35 191 "/>
</clipPath>
<clipPath id="clip9">
  <path d="M 33 164 L 359.039062 164 L 359.039062 245 L 33 245 Z M 33 164 "/>
</clipPath>
</defs>
<g id="surface39">
<g clip-path="url(#clip1)" clip-rule="nonzero">
<path style="fill:none;stroke-width:1.6;stroke-linecap:square;stroke-linejoin:miter;stroke:rgb(36.84082%,50.67749%,70.979309%);stroke-opacity:1;stroke-miterlimit:3.25;" d="M 46.035156 155.632812 L 37.21875 163.136719 L 56.242188 152.027344 L 37.792969 167.9375 L 62.335938 154.082031 L 50.855469 163.890625 L 66.179688 155.136719 L 59.339844 160.921875 L 80.871094 148.082031 L 55.488281 169.589844 L 89.441406 150.199219 L 68.992188 167.480469 L 103.414062 147.425781 L 77.339844 169.296875 L 100.136719 156.347656 L 83.328125 170.785156 L 116.738281 151.546875 L 96.050781 168.980469 L 127.289062 150.839844 L 101.460938 172.84375 L 134.378906 154.09375 L 114.339844 171.136719 L 133.769531 160.011719 L 121.644531 170.335938 L 165.679688 144.597656 L 139.117188 166.628906 L 159.3125 154.714844 L 148.273438 163.804688 L 154.992188 159.828125 L 148.234375 165.460938 L 169.90625 152.621094 L 154.148438 165.652344 L 180.503906 150.039062 L 165.628906 162.234375 L 183.953125 151.289062 L 167.011719 165.316406 L 190.101562 151.667969 L 173.730469 165.285156 L 204.460938 147.089844 L 186.265625 162.003906 L 207.328125 149.445312 L 188.785156 164.960938 L 219.15625 147.109375 L 202.136719 161.097656 L 218.183594 151.59375 L 179.425781 183.859375 L 205.460938 168.238281 L 185.113281 184.652344 L 217.679688 165.1875 L 199.332031 179.984375 L 223.011719 165.753906 L 199.578125 184.652344 L 221.765625 171.355469 L 215 176.796875 L 231.222656 167.011719 L 210.617188 183.609375 L 242.089844 164.695312 L 227.679688 176.25 L 246.816406 164.707031 L 226.5625 180.980469 L 252.023438 165.65625 L 232.601562 181.265625 L 255.121094 167.722656 L 229.875 188.113281 L 269.089844 164.570312 L 243.613281 185.078125 L 282.933594 161.433594 L 260.59375 179.355469 L 333.449219 136.71875 L 315.914062 151.378906 L 339.980469 137.238281 L 329.839844 145.640625 L 347.53125 135.132812 L 337.480469 143.433594 L 380.296875 117.800781 L 352.550781 140.546875 L 383.390625 122.097656 "/>
</g>
<g clip-path="url(#clip2)" clip-rule="nonzero">
<path style="fill:none;stroke-width:1.6;stroke-linecap:square;stroke-linejoin:miter;stroke:rgb(88.070679%,61.103821%,14.204407%);stroke-opacity:1;stroke-miterlimit:3.25;" d="M 25.855469 204.050781 L 33.34375 199.636719 L 22.242188 208.96875 L 36.425781 200.757812 L 29.890625 206.199219 L 48.265625 195.1875 L 30.882812 209.480469 L 40.367188 204.085938 L 27.984375 215.039062 L 47.402344 204.265625 L 39.394531 211.199219 L 73.441406 190.914062 L 47.976562 211.695312 L 78.738281 193.632812 L 61.351562 207.859375 L 72.742188 201.246094 L 66.234375 206.695312 L 71.992188 203.359375 L 62.445312 211.511719 L 84.742188 198.605469 L 67.105469 213.519531 L 94.953125 197.417969 L 79.851562 210.046875 L 92.011719 203.042969 L 80.78125 212.605469 L 99.765625 201.6875 L 84.484375 214.683594 L 105.398438 202.710938 L 78.589844 225.875 L 134.582031 194.003906 L 107.492188 216.925781 L 150.140625 192.273438 L 117.398438 219.964844 L 152.066406 200.117188 L 111.3125 235.179688 L 143.382812 217.28125 L 120.179688 237.425781 L 183.121094 201.953125 L 135.878906 242.734375 L 204.195312 204.316406 L 189.835938 216.835938 L 206.753906 207.359375 L 164.949219 243.386719 L 218.585938 213.136719 L 207.167969 223.152344 L 244.289062 202.230469 L 213.089844 229.320312 L 244.230469 211.90625 L 223.585938 229.992188 L 253.339844 213.390625 L 239.398438 225.613281 L 267.945312 209.644531 L 247.964844 227.109375 L 286.738281 205.277344 L 247.75 239.199219 L 279.808594 221.335938 L 254.648438 243.371094 L 292.019531 222.519531 L 276.761719 235.9375 L 306.988281 219.113281 L 286.21875 237.351562 L 303.480469 227.769531 L 279.3125 248.976562 L 355.367188 205.972656 L 317.632812 238.277344 L 343.472656 223.886719 L 315.238281 248.679688 "/>
</g>
<path style="fill:none;stroke-width:1.6;stroke-linecap:square;stroke-linejoin:miter;stroke:rgb(56.016541%,69.155884%,19.488525%);stroke-opacity:1;stroke-miterlimit:3.25;" d="M 37.410156 208.324219 L 31.03125 213.789062 L 67.285156 191.734375 L 46.644531 207.707031 L 57.925781 200.945312 L 49.285156 207.972656 L 66.679688 197.410156 L 45.875 214.546875 L 76.71875 196.292969 L 60.378906 209.394531 L 79.867188 197.6875 L 68.707031 206.617188 L 81.710938 198.769531 L 67.179688 210.617188 L 92.820312 195.195312 L 69.941406 213.824219 L 98.949219 196.605469 L 87.839844 205.507812 L 111.882812 190.820312 L 89.621094 208.640625 L 124.03125 187.65625 L 81.320312 222.425781 L 131.914062 192.691406 L 92.015625 225.675781 L 147.421875 193.210938 L 140.617188 198.722656 L 154.097656 190.429688 L 139.253906 202.242188 L 152.421875 194.4375 L 135.839844 208.105469 L 161.089844 193.105469 L 149.441406 202.511719 L 164.71875 193.339844 L 150.226562 205.097656 L 164.445312 196.730469 L 158.082031 201.929688 L 166.945312 196.671875 L 160.863281 201.628906 L 167.222656 197.863281 L 159.339844 204.359375 L 176.109375 194.289062 L 135.453125 227.570312 L 187.609375 196.855469 L 169.84375 211.421875 L 189.035156 200.199219 L 180.125 207.527344 L 195.9375 198.128906 L 185.980469 206.175781 L 197.054688 199.597656 L 178.695312 214.765625 L 195.367188 205.085938 L 178.964844 218.796875 L 215.921875 196.824219 L 189.878906 217.832031 L 216.523438 202.238281 L 178.210938 233.925781 L 233.429688 201.511719 L 213.429688 217.804688 L 240.917969 201.460938 L 209.875 226.871094 L 245.484375 206.082031 L 228.488281 220.039062 L 247.101562 209.144531 L 229.871094 223.390625 L 262.492188 204.066406 L 227.601562 232.652344 L 272.242188 206.46875 L 254.652344 220.734375 L 272.097656 210.46875 L 255.910156 223.753906 L 280.703125 209.128906 L 247.828125 236.195312 L 286.367188 213.722656 L 280.1875 218.769531 L 298.390625 207.78125 L 275.097656 226.582031 L 304.015625 209.398438 L 280.210938 228.699219 "/>
<path style="fill:none;stroke-width:1.6;stroke-linecap:square;stroke-linejoin:miter;stroke:rgb(92.251587%,38.562012%,20.918274%);stroke-opacity:1;stroke-miterlimit:3.25;" d="M 36.238281 203.613281 L 44.417969 198.714844 L 35.410156 206.070312 L 54.324219 194.621094 L 35.921875 209.566406 L 54.359375 198.722656 L 44.3125 206.9375 L 53.84375 201.332031 L 41.765625 211.574219 L 65.316406 197.808594 L 45.609375 214.414062 L 67.859375 201.742188 L 56.152344 211.648438 L 78.644531 198.53125 L 58.402344 215.65625 L 94.125 194.855469 L 61.847656 222.242188 L 93.949219 204.230469 L 87.476562 209.6875 L 103.625 200.253906 L 82.292969 218.375 L 108.90625 203.179688 L 95.046875 214.9375 L 132.382812 193.136719 L 111.90625 210.148438 L 121.253906 204.710938 L 111.429688 212.992188 L 123.011719 206.308594 L 117.023438 211.34375 L 149.679688 192.203125 L 115.734375 220.78125 L 163.574219 193.101562 L 128.457031 222.710938 L 170.09375 198.785156 L 135.585938 228.140625 L 181.109375 202.109375 L 146.90625 231.238281 L 205.59375 197.59375 L 176.335938 222.511719 L 214.886719 200.476562 L 200.570312 212.703125 L 220.667969 201.226562 L 173.582031 241.316406 L 243.175781 201.539062 L 207.640625 231.960938 L 238.148438 214.683594 L 222.660156 228.125 L 250.3125 212.550781 L 240.953125 220.640625 L 263.984375 207.574219 L 207.28125 255.890625 L 273.703125 218.078125 L 253.164062 235.898438 L 298.242188 210.4375 L 273.464844 231.785156 L 301.582031 215.929688 L 277.230469 237.007812 L 312.695312 217.035156 L 289.90625 236.75 L 332.734375 212.523438 L 286.214844 252.652344 L 343.03125 220.652344 L 324.054688 237.046875 L 327.722656 234.988281 "/>
<path style="fill:none;stroke-width:1.6;stroke-linecap:square;stroke-linejoin:miter;stroke:rgb(52.84729%,47.061157%,70.133972%);stroke-opacity:1;stroke-miterlimit:3.25;" d="M 27.878906 204.648438 L 37.78125 198.789062 L 28.65625 206.324219 L 41.496094 198.742188 L 30.398438 207.953125 L 40.441406 202.136719 L 34.722656 206.9375 L 44.40625 201.285156 L 27.929688 215.671875 L 57.621094 198.820312 L 38.949219 214.785156 L 61.109375 202.300781 L 44.582031 216.710938 L 75.449219 199.191406 L 50.746094 220.601562 L 76.070312 206.648438 L 69.300781 212.492188 L 83.398438 204.453125 L 74.605469 211.976562 L 88.210938 204.191406 L 76.585938 214.164062 L 90.136719 206.480469 L 78.894531 216.203125 L 119.84375 192.398438 L 93.421875 214.503906 L 111.3125 204.273438 L 92.453125 220.515625 L 117.261719 206.5 L 93.742188 226.9375 L 127.417969 208.070312 L 99.535156 232.375 L 162.886719 196.582031 L 112.136719 240.496094 L 149.953125 219.613281 L 135.914062 231.90625 L 153.363281 222.242188 L 135.277344 238.128906 L 165.527344 221.347656 L 146.96875 237.589844 L 207.140625 203.773438 L 156.125 248.183594 L 192.53125 228.023438 L 175.488281 242.847656 L 235.449219 209.203125 L 219.488281 223.296875 L 238.519531 212.707031 L 228.515625 221.558594 L 238.1875 216.191406 L 201.964844 247.585938 L 265.433594 211.964844 L 244.949219 230.082031 L 277.128906 212.199219 L 256.660156 230.308594 L 282.386719 216.046875 L 265.1875 231.292969 L 278.792969 223.769531 L 269.207031 232.28125 L 285.714844 223.15625 L 238.976562 263.722656 L 259.507812 252.28125 L 247.140625 262.960938 L 257.824219 257.023438 L 245.875 267.414062 L 328.800781 221.035156 L 265.625 276.03125 L 288.871094 263.089844 L 266.683594 282.328125 L 304.28125 261.3125 L 288.050781 275.179688 L 330.515625 251.109375 "/>
<path style="fill:none;stroke-width:1.6;stroke-linecap:square;stroke-linejoin:miter;stroke:rgb(77.206421%,43.154907%,10.238647%);stroke-opacity:1;stroke-miterlimit:3.25;" d="M 31.25 152.5 L 39.324219 147.621094 L 26.390625 158.179688 L 40.730469 149.703125 L 24.667969 163.246094 L 52.019531 147.234375 L 38.480469 158.214844 L 52.296875 150.046875 L 40.296875 160.007812 L 59.03125 148.980469 L 47.273438 158.636719 L 65.605469 147.742188 L 47.972656 162.375 L 89.570312 137.21875 L 51.589844 168.179688 L 103.664062 137.429688 L 82.15625 154.550781 L 103.703125 141.554688 L 89.09375 153.316406 L 112.320312 139.25 L 83.367188 162.9375 L 123.230469 139.3125 L 84.960938 171.078125 L 143.445312 136.777344 L 105.003906 168.402344 L 150.972656 141.402344 L 119.96875 167.027344 L 145.578125 151.964844 L 132.492188 162.617188 L 178.652344 135.136719 L 149.464844 158.953125 L 164.691406 149.789062 L 154.679688 157.863281 L 165.613281 151.285156 L 154.726562 160.128906 L 176.777344 146.875 L 164.796875 156.515625 L 189.535156 141.585938 L 170.578125 156.851562 L 194.433594 142.4375 L 177.417969 156.125 L 231.433594 123.78125 L 194.484375 153.832031 L 211.484375 143.5625 L 197.109375 155.171875 L 214.5625 144.675781 L 208.550781 149.503906 L 226.769531 138.441406 L 205.433594 155.667969 L 249.582031 129 L 224.296875 149.269531 L 245.710938 136.285156 L 200.238281 173.484375 L 215.625 164.105469 L 197.832031 178.160156 L 273.296875 133.503906 L 261.003906 143.394531 L 278.511719 132.792969 L 264.398438 144.15625 L 283.882812 132.371094 L 269.882812 143.648438 L 296.9375 127.261719 L 270.660156 148.5 L 307.636719 126.203125 L 287.839844 142.140625 L 313.558594 126.582031 L 296.175781 140.582031 L 320.371094 125.941406 L 307.835938 136.019531 L 330.738281 122.125 L 295.53125 150.894531 L 300.863281 147.894531 "/>
<g clip-path="url(#clip3)" clip-rule="nonzero">
<path style="fill:none;stroke-width:1.6;stroke-linecap:square;stroke-linejoin:miter;stroke:rgb(36.38916%,61.84845%,78.233337%);stroke-opacity:1;stroke-miterlimit:3.25;" d="M 29.148438 157.300781 L 33.246094 154.910156 L 28.160156 159.203125 L 36.320312 154.460938 L 28.535156 161.085938 L 45.863281 150.972656 L 31.242188 163.355469 L 55.496094 149.253906 L 39.839844 162.316406 L 58.667969 151.421875 L 48.371094 160.007812 L 60.269531 153.097656 L 50.328125 161.503906 L 75.960938 146.324219 L 60.863281 158.585938 L 77.839844 148.511719 L 57.085938 165.964844 L 101.222656 139.796875 L 38.710938 191.167969 L 110.957031 149.171875 L 87.457031 168.890625 L 151.878906 130.523438 L 111.222656 163.53125 L 143.324219 144.625 L 97.191406 183.203125 L 118.144531 170.894531 L 109.804688 177.722656 L 116.292969 173.851562 L 109.167969 179.613281 L 120.558594 172.832031 L 114.953125 177.351562 L 126.050781 170.800781 L 113.300781 181.160156 L 127.535156 172.679688 L 120.945312 177.992188 L 135.910156 169.21875 L 124.921875 178.191406 L 133.546875 173.039062 L 117.203125 186.347656 L 181.742188 148.847656 L 169.441406 158.890625 L 189.011719 147.191406 L 174.972656 158.648438 L 192.25 148.332031 L 177.921875 160.101562 L 198.394531 147.929688 L 186.820312 157.394531 L 206.425781 145.667969 L 192.128906 157.351562 L 225.242188 137.511719 L 203.585938 155.121094 L 231.085938 138.613281 L 216.578125 150.359375 L 223.9375 145.941406 L 218.128906 150.671875 L 233.644531 141.335938 L 210.808594 160.296875 L 243.125 141.289062 L 228.601562 153.152344 L 268.429688 129.226562 L 235.828125 155.886719 L 274.433594 132.855469 L 247.605469 154.851562 L 283.882812 133.238281 L 265.640625 148.09375 L 291.71875 132.441406 L 275.984375 145.238281 L 318.160156 119.832031 L 280.789062 150.304688 L 303.363281 136.886719 L 288.660156 148.984375 L 321.03125 129.644531 L 305.625 142.195312 L 357.140625 111.175781 L 319.851562 141.480469 L 340.914062 128.855469 L 322.675781 143.777344 L 351.394531 126.59375 "/>
</g>
<path style="fill:none;stroke-width:1.6;stroke-linecap:square;stroke-linejoin:miter;stroke:rgb(99.998474%,74.998474%,0%);stroke-opacity:1;stroke-miterlimit:3.25;" d="M 31.25 152.5 L 39.324219 147.621094 L 26.390625 158.179688 L 40.730469 149.703125 L 24.667969 163.246094 L 52.019531 147.234375 L 38.480469 158.214844 L 52.296875 150.046875 L 40.296875 160.007812 L 59.03125 148.980469 L 47.273438 158.636719 L 65.605469 147.742188 L 47.972656 162.375 L 89.570312 137.21875 L 51.589844 168.179688 L 103.664062 137.429688 L 82.15625 154.550781 L 103.703125 141.554688 L 89.09375 153.316406 L 112.320312 139.25 L 83.367188 162.9375 L 123.230469 139.3125 L 84.960938 171.078125 L 143.445312 136.777344 L 105.003906 168.402344 L 150.972656 141.402344 L 119.96875 167.027344 L 145.578125 151.964844 L 132.492188 162.617188 L 178.652344 135.136719 L 149.464844 158.953125 L 164.691406 149.789062 L 154.679688 157.863281 L 165.613281 151.285156 L 154.726562 160.128906 L 176.777344 146.875 L 164.796875 156.515625 L 189.535156 141.585938 L 170.578125 156.851562 L 194.433594 142.4375 L 177.417969 156.125 L 231.433594 123.78125 L 194.484375 153.832031 L 211.484375 143.5625 L 197.109375 155.171875 L 214.5625 144.675781 L 208.550781 149.503906 L 226.769531 138.441406 L 205.433594 155.667969 L 249.582031 129 L 224.296875 149.269531 L 245.710938 136.285156 L 200.238281 173.484375 L 215.625 164.105469 L 197.832031 178.160156 L 273.296875 133.503906 L 261.003906 143.394531 L 278.511719 132.792969 L 264.398438 144.15625 L 283.882812 132.371094 L 269.882812 143.648438 L 296.9375 127.261719 L 270.660156 148.5 L 307.636719 126.203125 L 287.839844 142.140625 L 313.558594 126.582031 L 296.175781 140.582031 L 320.371094 125.941406 L 307.835938 136.019531 L 330.738281 122.125 L 295.53125 150.894531 L 300.863281 147.894531 "/>
<g clip-path="url(#clip4)" clip-rule="nonzero">
<path style="fill:none;stroke-width:1.6;stroke-linecap:square;stroke-linejoin:miter;stroke:rgb(64.761353%,37.815857%,61.402893%);stroke-opacity:1;stroke-miterlimit:3.25;" d="M 42.261719 206.175781 L 52.050781 200.289062 L 37.765625 212.136719 L 56.335938 201.238281 L 43.261719 212.152344 L 62.292969 201.003906 L 51.378906 210.003906 L 63.425781 202.945312 L 57.253906 208.039062 L 71.023438 199.792969 L 57.625 210.816406 L 83.582031 195.191406 L 56.316406 217.78125 L 90.320312 198.050781 L 76.898438 208.960938 L 97.402344 196.660156 L 82.117188 209.058594 L 117.921875 187.152344 L 90.726562 208.75 L 105.515625 199.964844 L 98.011719 206.082031 L 124.800781 189.832031 L 91.230469 217.308594 L 130.101562 194.410156 L 104.105469 215.832031 L 142.277344 193.3125 L 132.410156 201.429688 L 143.1875 195.0625 L 109.332031 223.234375 L 164.453125 190.730469 L 149.984375 202.3125 L 164.898438 193.457031 L 152.214844 203.871094 L 195.4375 177.953125 L 156.464844 209.785156 L 177.550781 197.484375 L 162.171875 210.316406 L 185.957031 196.375 L 163.621094 214.957031 L 191.054688 199.007812 L 182.257812 206.28125 L 193.214844 199.859375 L 180.800781 210.203125 L 205.683594 195.359375 L 184.566406 212.515625 L 202.292969 202.222656 L 195.230469 208.082031 L 206.511719 201.476562 L 181.167969 222.722656 L 221.070312 199.460938 L 205.160156 212.519531 L 220.339844 203.667969 L 200.640625 220.160156 L 232.835938 201.382812 L 203.507812 225.820312 L 235.667969 207.253906 L 219.347656 220.917969 L 240.0625 208.941406 L 220.472656 225.386719 L 312.167969 171.554688 L 293.476562 187.390625 L 312.988281 176.09375 L 292.289062 193.734375 L 313.085938 181.753906 L 293.464844 198.542969 L 321.46875 182.414062 L 306.011719 195.625 L 340.578125 175.667969 L 317.179688 195.601562 L 350.480469 176.375 L 323.03125 199.789062 L 370.535156 172.347656 L 347.710938 191.726562 L 381.945312 171.902344 L 362.65625 188.261719 L 373.09375 182.226562 "/>
</g>
<path style="fill:none;stroke-width:1.6;stroke-linecap:square;stroke-linejoin:miter;stroke:rgb(57.157898%,58.647156%,0%);stroke-opacity:1;stroke-miterlimit:3.25;" d="M 22.15625 201.261719 L 12.671875 209.367188 L 27.296875 200.984375 L 20.25 206.925781 L 37.3125 196.882812 L 21.441406 210.195312 L 42.539062 197.992188 L 18.871094 218.753906 L 57.867188 196.929688 L 36.816406 214.886719 L 66.550781 197.972656 L 53.925781 208.535156 L 78.414062 194.105469 L 64.234375 205.734375 L 74.464844 199.761719 L 55.433594 216.113281 L 86.382812 198.484375 L 71.828125 210.769531 L 83.773438 203.949219 L 61.761719 223.210938 L 97.5625 203.226562 L 76.347656 221.617188 L 126.40625 193.046875 L 80.335938 232.824219 L 120.613281 210.59375 L 87.605469 239.683594 L 166.144531 195.816406 L 130.328125 226.671875 L 178.398438 199.507812 L 166.457031 209.910156 L 181.261719 201.589844 L 139.203125 238.125 L 212.523438 196.820312 L 146.246094 254.34375 L 241.023438 201.445312 L 213.988281 225.113281 L 249.304688 205.4375 L 228.476562 223.761719 L 243.070312 215.691406 L 233.671875 224.023438 L 274.09375 201.265625 L 205.359375 260.878906 L 235.757812 243.945312 L 214.15625 262.621094 L 300.929688 214.210938 L 226.582031 279.09375 L 270.140625 254.933594 L 254.757812 268.121094 L 331.769531 225.125 L 306.238281 247.828125 L 351.546875 222.859375 L 317.820312 252.828125 "/>
<path style="fill:none;stroke-width:1.6;stroke-linecap:square;stroke-linejoin:miter;stroke:rgb(91.499329%,33.248901%,21.24939%);stroke-opacity:1;stroke-miterlimit:3.25;" d="M 21.777344 162.488281 L 21.660156 162.59375 L 39.316406 152.324219 L 29.425781 160.589844 L 44.285156 151.898438 L 31.925781 162.3125 L 57.367188 147.257812 L 45.019531 157.144531 L 58.167969 149.257812 L 49.488281 156.257812 L 69.652344 143.867188 L 44.917969 164.035156 L 69.84375 149.546875 L 57.84375 159.410156 L 68.933594 152.925781 L 50.28125 168.941406 L 108.714844 133.992188 L 63.4375 170.675781 L 117.363281 138.910156 L 92.046875 159.382812 L 116.984375 144.554688 L 85.210938 171.003906 L 125.8125 147.394531 L 117.691406 154.0625 L 134.285156 144.152344 L 106.148438 167.328125 L 124.53125 156.496094 L 116.976562 162.660156 L 157 138.800781 L 129.78125 160.972656 L 176.445312 132.996094 L 146 157.675781 L 161.425781 148.378906 L 143.113281 163.25 L 166.941406 148.972656 L 156.804688 157.109375 L 174.125 146.628906 L 160.945312 157.207031 L 172.855469 150.003906 L 159.917969 160.46875 L 217.046875 126.1875 L 172.664062 162.390625 L 213.746094 137.761719 L 194.929688 152.808594 L 209.726562 143.820312 L 199.363281 152.113281 L 212.203125 144.3125 L 202.898438 151.761719 L 232.246094 133.90625 L 211.160156 150.738281 L 227.0625 141.070312 L 219.757812 146.894531 L 241.972656 133.332031 L 221.378906 149.757812 L 243.945312 136.015625 L 231.625 145.824219 L 243.355469 138.675781 L 227.96875 151.011719 L 268.960938 126.054688 L 236.671875 151.894531 L 277.210938 127.257812 L 251.050781 148.140625 L 278.625 131.375 L 264.675781 142.492188 L 301.480469 120.003906 L 273.730469 142.089844 L 293.355469 130.132812 L 274.066406 145.566406 L 313.191406 121.726562 L 295.453125 135.828125 L 324.402344 118.117188 L 302.089844 135.855469 L 332.730469 117.113281 L 297.777344 145.050781 L 324.085938 129.117188 "/>
<path style="fill:none;stroke-width:1.6;stroke-linecap:square;stroke-linejoin:miter;stroke:rgb(40.081787%,52.200317%,84.999084%);stroke-opacity:1;stroke-miterlimit:3.25;" d="M 38.148438 160.054688 L 34.789062 162.996094 L 52.203125 152.941406 L 39.878906 163.496094 L 60.933594 151.34375 L 52.277344 158.519531 L 65.429688 150.757812 L 52.058594 162.011719 L 75.996094 147.945312 L 54.839844 165.800781 L 84.535156 148.691406 L 67.746094 162.726562 L 78.574219 156.574219 L 71.371094 162.78125 L 83.792969 155.699219 L 69.714844 167.976562 L 84.003906 160.046875 L 73.539062 169.296875 L 95.980469 156.71875 L 76.457031 173.945312 L 106.363281 157.339844 L 91.347656 170.355469 L 114.484375 157.269531 L 86.683594 181.5 L 131.769531 156.242188 L 114.09375 171.558594 L 135.320312 159.558594 L 126.007812 167.457031 L 132.132812 163.933594 L 126.632812 168.667969 L 147.308594 156.734375 L 118.933594 181.113281 L 129.152344 175.105469 L 113.171875 188.265625 L 135.21875 175.207031 L 124.628906 183.980469 L 139.039062 175.515625 L 131.125 182.054688 L 148.976562 171.605469 L 132.539062 185.25 L 153.453125 172.964844 L 135.566406 187.808594 L 154.375 176.789062 L 144.371094 185.109375 L 162.632812 174.378906 L 153.304688 182.078125 L 163.394531 176.144531 L 151.066406 186.398438 L 180.457031 169.167969 L 161.183594 185.113281 L 177.296875 175.660156 L 168.78125 182.707031 L 182.644531 174.546875 L 160.359375 193.015625 L 198.191406 170.703125 L 179.226562 186.375 L 210.050781 168.226562 L 190.550781 184.292969 L 213.425781 170.808594 L 193.558594 187.246094 L 213.320312 175.660156 L 190.085938 195.015625 L 233.417969 169.546875 L 209.121094 189.664062 L 236.941406 173.34375 L 225.824219 182.527344 L 240.6875 173.777344 L 230 182.613281 L 255.671875 167.445312 L 234.945312 184.53125 L 265.640625 166.414062 L 245.898438 182.667969 L 262.378906 172.964844 L 247.097656 185.609375 L 276.296875 168.40625 L 250.761719 189.53125 L 280.570312 172.023438 L 256.640625 191.878906 L 299.742188 166.53125 L 271.695312 189.726562 L 308.105469 168.3125 L 286.824219 185.902344 L 325.472656 163.105469 L 289.148438 193.148438 L 339.175781 163.722656 L 320.179688 179.378906 "/>
<g clip-path="url(#clip5)" clip-rule="nonzero">
<path style="fill:none;stroke-width:1.6;stroke-linecap:square;stroke-linejoin:miter;stroke:rgb(97.280884%,62.162781%,7.336426%);stroke-opacity:1;stroke-miterlimit:3.25;" d="M 25.136719 200.058594 L 29.882812 197.207031 L 18.921875 206.207031 L 32.289062 198.320312 L 22.464844 206.410156 L 33.511719 199.925781 L 20.945312 210.558594 L 38.179688 200.648438 L 30.445312 207.101562 L 44.871094 198.597656 L 35.503906 206.300781 L 57.199219 193.195312 L 36.257812 210.300781 L 53.34375 200.449219 L 43.058594 209.085938 L 67.664062 194.53125 L 43.941406 214.359375 L 81.832031 192.214844 L 53.988281 215.378906 L 94.910156 191.511719 L 53.429688 226.761719 L 120.796875 188.035156 L 76.253906 225.328125 L 136.039062 190.945312 L 123.988281 200.890625 L 158.132812 180.523438 L 110.289062 220.1875 L 146.429688 199.394531 L 134.714844 209.386719 L 157.222656 196.449219 L 141.960938 209.40625 L 158.65625 199.875 L 149.257812 207.902344 L 206.535156 174.371094 L 186.722656 191.390625 L 204.402344 181.242188 L 196.871094 187.773438 L 209.992188 180.285156 L 202.226562 187.003906 L 212.710938 181.027344 L 200.230469 191.84375 L 222.320312 179.207031 L 207.339844 192.183594 L 232.167969 177.984375 L 216.9375 191.175781 L 230.8125 183.277344 L 221.945312 191 L 244.917969 177.890625 L 226.535156 193.816406 L 250.589844 180.085938 L 242.257812 187.292969 L 254.160156 180.503906 L 241.25 191.714844 L 261.117188 180.40625 L 243.9375 195.320312 L 282.628906 173.191406 L 254.605469 197.378906 L 299.714844 171.523438 L 275.597656 192.335938 L 300.632812 178.066406 L 285.644531 191.042969 L 315.824219 173.796875 L 294.226562 192.46875 L 334.917969 169.1875 L 310.511719 190.222656 L 344.589844 170.726562 L 311.25 199.601562 L 353.386719 175.601562 L 322.65625 202.253906 L 374.765625 172.519531 L 352.488281 191.773438 L 366.582031 183.75 L 310.09375 231.027344 "/>
</g>
<path style="fill:none;stroke-width:1.6;stroke-linecap:square;stroke-linejoin:miter;stroke:rgb(73.677063%,35.800171%,50.302124%);stroke-opacity:1;stroke-miterlimit:3.25;" d="M 9.554688 161.335938 L 8.71875 162.085938 L 34.960938 146.933594 L 22.785156 156.988281 L 47.964844 141.808594 L 24.273438 161.1875 L 36.464844 154.351562 L 26.863281 162.792969 L 52.921875 147.855469 L 35.046875 163.058594 L 65.605469 145.394531 L 37.039062 170.003906 L 71.054688 151.113281 L 55.332031 164.664062 L 87.332031 146.300781 L 56.257812 173.1875 L 102.617188 147.105469 L 73.277344 172.433594 L 117.242188 147.585938 L 91.347656 169.722656 L 135.140625 144.585938 L 90.089844 183.132812 L 103.238281 175.484375 L 87.417969 188.585938 L 110.324219 175.140625 L 97.800781 185.589844 L 119.25 173.105469 L 105.894531 184.203125 L 123.3125 174.046875 L 113.152344 182.46875 L 135.742188 169.453125 L 123.46875 179.703125 L 136.667969 171.980469 L 124.816406 181.78125 L 139.191406 173.375 L 130.222656 180.785156 L 141.617188 174.117188 L 125.726562 187.375 L 148.925781 173.871094 L 134.308594 186.039062 L 163.195312 169.1875 L 143.964844 185.128906 L 162.421875 174.367188 L 148.476562 185.984375 L 175.074219 170.445312 L 155.941406 186.328125 L 182.753906 170.667969 L 160.714844 189.011719 L 191.980469 170.785156 L 174.40625 185.375 L 252.285156 140.8125 L 233.210938 156.992188 L 250.980469 146.75 L 204.574219 186.351562 L 229.242188 171.964844 L 200.550781 196.007812 L 231.394531 178.136719 L 215.738281 191.273438 L 252.480469 169.882812 L 228.539062 189.867188 L 249.585938 177.644531 L 228.859375 195.058594 L 261.261719 176.273438 L 251.355469 184.550781 L 271.835938 172.613281 L 247.855469 192.695312 L 267.226562 181.472656 L 260.761719 186.894531 L 270.6875 181.132812 L 247.855469 200.367188 L 299.378906 170.46875 L 274.769531 191.0625 L 318.046875 165.859375 L 285.75 192.875 "/>
<g clip-path="url(#clip6)" clip-rule="nonzero">
<path style="fill:none;stroke-width:1.6;stroke-linecap:square;stroke-linejoin:miter;stroke:rgb(28.025818%,71.499634%,42.919922%);stroke-opacity:1;stroke-miterlimit:3.25;" d="M 54.804688 151.695312 L 58.628906 149.351562 L 42.746094 162.421875 L 60.121094 152.226562 L 48.578125 161.835938 L 70.898438 148.539062 L 52.84375 163.410156 L 67.210938 155.160156 L 53.726562 166.832031 L 86.824219 147.484375 L 54.363281 175.34375 L 95.871094 152.117188 L 79.710938 165.699219 L 98.4375 154.902344 L 78.507812 172.003906 L 109.601562 154.242188 L 91.28125 169.761719 L 120.265625 152.996094 L 99.21875 170.757812 L 140.867188 146.363281 L 116.085938 166.851562 L 146.359375 149.050781 L 104.605469 184.085938 L 121.207031 174.214844 L 109.515625 183.734375 L 128.96875 172.238281 L 118.492188 180.789062 L 131.367188 173.125 L 113.527344 187.652344 L 135.609375 174.464844 L 124.242188 183.699219 L 138.71875 175.066406 L 134.796875 178.226562 L 141.015625 174.496094 L 130.828125 182.757812 L 149.269531 171.75 L 142.050781 177.5625 L 147.652344 174.203125 L 140.476562 179.996094 L 150.933594 173.726562 L 140.386719 182.261719 L 160.667969 170.160156 L 146.414062 181.6875 L 161.554688 172.621094 L 146.949219 184.457031 L 208.285156 148.671875 L 196.277344 158.46875 L 213.878906 147.914062 L 173.402344 181.554688 L 192.3125 170.203125 L 179.054688 180.878906 L 196.542969 170.375 L 186.871094 178.140625 L 253.625 139.035156 L 234.441406 154.679688 L 247.242188 147.039062 L 234.644531 157.476562 L 258.183594 143.476562 L 245.835938 153.59375 L 274.15625 136.585938 L 258.71875 149.132812 L 271.082031 141.703125 L 261.503906 149.523438 L 269.078125 144.988281 L 264.375 148.839844 L 286.019531 135.800781 L 267.347656 151.035156 L 302.496094 129.886719 L 273.878906 153.289062 L 315.804688 128.152344 L 292.5625 147.054688 L 321.082031 129.890625 L 295.789062 150.585938 L 315.429688 138.898438 L 303.941406 148.34375 L 340.855469 126.167969 L 320.214844 142.957031 L 356.132812 121.296875 L 330.316406 142.285156 L 361.953125 123.230469 L 341.695312 139.699219 L 360.820312 128.195312 L 336.054688 148.574219 L 378.058594 123.480469 L 377.179688 124.195312 "/>
</g>
<path style="fill:none;stroke-width:1.6;stroke-linecap:square;stroke-linejoin:miter;stroke:rgb(36.84082%,50.67749%,70.979309%);stroke-opacity:1;stroke-miterlimit:3.25;" d="M 25.285156 199.765625 L 27.4375 198.460938 L 15.695312 208.09375 L 42.398438 191.839844 L 24.511719 205.835938 L 43.304688 194.367188 L 23.410156 210.476562 L 46.457031 196.859375 L 33.691406 207.179688 L 59.214844 191.589844 L 44.503906 203.050781 L 52.542969 198.199219 L 39.042969 209.296875 L 67.785156 192.003906 L 51.300781 205.097656 L 71.65625 192.753906 L 59.859375 202.101562 L 83.824219 187.332031 L 68.222656 199.53125 L 103.332031 177.816406 L 81.148438 195.136719 L 88.855469 190.457031 L 76.457031 200.386719 L 95.265625 188.957031 L 86.808594 195.660156 L 114.003906 178.9375 L 110.519531 181.84375 L 116.859375 178.121094 L 107.648438 185.753906 L 120.855469 177.941406 L 115.207031 182.644531 L 120.070312 179.796875 L 115.769531 183.390625 L 133.898438 172.902344 L 120.8125 183.875 L 128.925781 179.125 L 122.242188 184.714844 L 131.296875 179.414062 L 104.648438 200.65625 L 121.261719 190.605469 L 112.4375 197.503906 L 119.980469 192.957031 L 102.878906 206.960938 L 157.390625 174.335938 L 149.792969 180.613281 L 158.226562 175.648438 L 151.648438 181.097656 L 166.675781 172.253906 L 147.167969 188.496094 L 173.339844 173.152344 L 161.445312 183.003906 L 178.910156 172.734375 L 165.304688 184.011719 L 178.632812 176.199219 L 169.191406 184.0625 L 183.40625 175.730469 L 166.292969 190.050781 L 189.820312 176.308594 L 175.007812 188.703125 L 197.613281 175.492188 L 183.425781 187.335938 L 201.144531 176.984375 L 191.390625 185.121094 L 214.363281 171.625 L 200.15625 183.390625 L 222.898438 170 L 196.160156 192.285156 L 221.222656 177.675781 L 210.101562 186.964844 L 237.683594 170.777344 L 219.882812 185.546875 L 232.847656 177.964844 L 218.484375 189.988281 L 243.257812 175.511719 L 228.691406 187.660156 L 252.261719 173.859375 L 234.230469 188.894531 L 252.410156 178.273438 L 233.605469 194.042969 L 274.851562 169.910156 L 246.632812 193.4375 L 288.953125 168.652344 L 252.027344 199.472656 L 309.617188 165.738281 L 279.527344 190.734375 L 325.597656 163.675781 L 297.9375 186.605469 L 335.160156 164.722656 L 305.625 189.242188 L 328.96875 175.574219 L 299.746094 200.003906 L 319.996094 188.222656 "/>
<path style="fill:none;stroke-width:1.6;stroke-linecap:square;stroke-linejoin:miter;stroke:rgb(88.070679%,61.103821%,14.204407%);stroke-opacity:1;stroke-miterlimit:3.25;" d="M 29.410156 208.851562 L 43.503906 200.570312 L 36.515625 206.3125 L 55.394531 194.875 L 38.40625 208.582031 L 56.996094 197.523438 L 33.585938 217.519531 L 73.425781 194.476562 L 48.851562 214.84375 L 73.601562 200.664062 L 60.886719 211.335938 L 83.789062 197.90625 L 57.570312 220.265625 L 92.929688 200.183594 L 77.921875 212.78125 L 97.242188 201.589844 L 87.785156 209.496094 L 100.199219 202.261719 L 86.496094 213.832031 L 141.160156 181.03125 L 89.453125 223.597656 L 135.769531 196.933594 L 106.589844 221.53125 L 144.226562 199.828125 L 117.851562 222.09375 L 163.746094 195.59375 L 147.242188 209.542969 L 165.457031 199.046875 L 153.351562 209.359375 L 166.820312 201.632812 L 155.667969 211.15625 L 171.949219 201.820312 L 135.785156 232.550781 L 190.652344 201.164062 L 177.453125 212.472656 L 204.886719 196.625 L 180.351562 217.410156 L 211.484375 199.589844 L 190.003906 217.917969 L 212.667969 205.046875 L 197.839844 217.800781 L 230.90625 198.769531 L 209.554688 216.796875 L 231.429688 204.328125 L 204.921875 227.078125 L 239.882812 207.234375 L 227.972656 217.441406 L 247.277344 206.4375 L 231.082031 220.3125 L 244.605469 212.660156 L 234.941406 220.984375 L 270.976562 200.035156 L 239.625 226.339844 L 263.128906 213.039062 L 247.492188 226.496094 L 276.871094 209.8125 L 249.046875 233.726562 L 287.523438 211.9375 L 272.910156 224.449219 L 280.976562 219.882812 L 261.941406 236.316406 L 300.660156 214.410156 L 281.539062 230.828125 L 298.519531 221.230469 L 276.527344 240.210938 L 308.324219 222.273438 L 288.394531 239.464844 L 328.628906 216.691406 L 313.652344 229.523438 L 327.027344 221.941406 L 289.625 254.152344 L 323.3125 235.144531 "/>
<path style="fill:none;stroke-width:1.6;stroke-linecap:square;stroke-linejoin:miter;stroke:rgb(56.016541%,69.155884%,19.488525%);stroke-opacity:1;stroke-miterlimit:3.25;" d="M 38.148438 160.054688 L 34.789062 162.996094 L 52.203125 152.941406 L 39.878906 163.496094 L 60.933594 151.34375 L 52.277344 158.519531 L 65.429688 150.757812 L 52.058594 162.011719 L 75.996094 147.945312 L 54.839844 165.800781 L 84.535156 148.691406 L 67.746094 162.726562 L 78.574219 156.574219 L 71.371094 162.78125 L 83.792969 155.699219 L 69.714844 167.976562 L 84.003906 160.046875 L 73.539062 169.296875 L 95.980469 156.71875 L 76.457031 173.945312 L 106.363281 157.339844 L 91.347656 170.355469 L 114.484375 157.269531 L 86.683594 181.5 L 131.769531 156.242188 L 114.09375 171.558594 L 135.320312 159.558594 L 126.007812 167.457031 L 132.132812 163.933594 L 126.632812 168.667969 L 147.308594 156.734375 L 118.933594 181.113281 L 129.152344 175.105469 L 113.171875 188.265625 L 135.21875 175.207031 L 124.628906 183.980469 L 139.039062 175.515625 L 131.125 182.054688 L 148.976562 171.605469 L 132.539062 185.25 L 153.453125 172.964844 L 135.566406 187.808594 L 154.375 176.789062 L 144.371094 185.109375 L 162.632812 174.378906 L 153.304688 182.078125 L 163.394531 176.144531 L 151.066406 186.398438 L 180.457031 169.167969 L 161.183594 185.113281 L 177.296875 175.660156 L 168.78125 182.707031 L 182.644531 174.546875 L 160.359375 193.015625 L 198.191406 170.703125 L 179.226562 186.375 L 210.050781 168.226562 L 190.550781 184.292969 L 213.425781 170.808594 L 193.558594 187.246094 L 213.320312 175.660156 L 190.085938 195.015625 L 233.417969 169.546875 L 209.121094 189.664062 L 236.941406 173.34375 L 225.824219 182.527344 L 240.6875 173.777344 L 230 182.613281 L 255.671875 167.445312 L 234.945312 184.53125 L 265.640625 166.414062 L 245.898438 182.667969 L 262.378906 172.964844 L 247.097656 185.609375 L 276.296875 168.40625 L 250.761719 189.53125 L 280.570312 172.023438 L 256.640625 191.878906 L 299.742188 166.53125 L 271.695312 189.726562 L 308.105469 168.3125 L 286.824219 185.902344 L 325.472656 163.105469 L 289.148438 193.148438 L 339.175781 163.722656 L 320.179688 179.378906 "/>
<g clip-path="url(#clip7)" clip-rule="nonzero">
<path style="fill:none;stroke-width:1.6;stroke-linecap:square;stroke-linejoin:miter;stroke:rgb(92.251587%,38.562012%,20.918274%);stroke-opacity:1;stroke-miterlimit:3.25;" d="M 40.671875 158.9375 L 56.261719 149.457031 L 43.570312 159.609375 L 55.308594 152.570312 L 46.558594 159.679688 L 73.082031 143.15625 L 51.554688 159.832031 L 77.613281 143.703125 L 48.207031 167.425781 L 74.453125 152.207031 L 62.40625 162.085938 L 78.507812 152.550781 L 70.769531 158.824219 L 110.128906 134 L 76.941406 159.488281 L 105.382812 142.082031 L 82.769531 160.011719 L 118.039062 138.367188 L 91.847656 159.019531 L 126.765625 137.613281 L 100.792969 158.152344 L 140.070312 134.023438 L 121.160156 148.730469 L 151.597656 129.71875 L 124.265625 151.046875 L 162.863281 127.078125 L 123.875 157.648438 L 191.027344 115.988281 L 165.820312 135.34375 L 179.453125 126.761719 L 161.539062 140.707031 L 186.964844 124.867188 L 180.070312 130.148438 L 227.527344 100.054688 L 160.210938 152.023438 L 221.941406 113.613281 L 205.542969 126.222656 L 258.171875 92.992188 L 194.921875 141.820312 L 254.089844 104.933594 L 239.722656 115.972656 L 290.546875 83.800781 L 260.648438 106.628906 L 331.550781 61.730469 L 274.652344 105.375 L 313.207031 80.894531 L 281.523438 105.125 L 338.140625 69.21875 L 310.492188 90.191406 L 349.457031 65.328125 L 315.886719 90.820312 L 357.882812 64.046875 L 326.671875 87.742188 L 352.125 71.554688 "/>
</g>
<g clip-path="url(#clip8)" clip-rule="nonzero">
<path style="fill:none;stroke-width:1.6;stroke-linecap:square;stroke-linejoin:miter;stroke:rgb(52.84729%,47.061157%,70.133972%);stroke-opacity:1;stroke-miterlimit:3.25;" d="M 45.667969 206.582031 L 47.574219 205.476562 L 42.71875 209.648438 L 61.3125 198.75 L 42.640625 214.742188 L 70.730469 198.632812 L 50.9375 215.640625 L 70.960938 204.503906 L 60.195312 213.941406 L 73.324219 206.632812 L 66.4375 212.675781 L 74.910156 207.953125 L 62.777344 218.910156 L 89.886719 203.875 L 66.625 224.757812 L 99.25 207.039062 L 77.921875 226.25 L 108.648438 209.5625 L 94.746094 221.9375 L 127.777344 203.421875 L 102.367188 225.777344 L 123.992188 213.933594 L 98.175781 237.40625 L 124.886719 223.21875 L 107.710938 238.976562 L 169.605469 204.960938 L 130.023438 240.128906 L 153.429688 227.53125 L 141.472656 238.339844 L 176.25 219.363281 L 132.628906 259.007812 L 193 226.710938 L 162.324219 254.507812 L 224.472656 220.714844 L 176.671875 263.816406 L 237.796875 230.859375 L 196.917969 267.875 L 249.683594 239.472656 L 205.027344 280.007812 L 269.175781 245.59375 L 222.460938 288 L 283.835938 255.105469 L 243.128906 292.058594 L 315.011719 253.460938 L 258.238281 304.957031 L 335.523438 263.53125 L 283.617188 310.664062 L 364.964844 267.03125 L 315.242188 312.359375 L 354.410156 291.410156 "/>
</g>
<path style="fill:none;stroke-width:1.6;stroke-linecap:square;stroke-linejoin:miter;stroke:rgb(77.206421%,43.154907%,10.238647%);stroke-opacity:1;stroke-miterlimit:3.25;" d="M 3.792969 151.15625 L 2.109375 152.515625 L 8.863281 148.449219 L 0.964844 154.8125 L 15.539062 145.972656 L 2.394531 156.46875 L 21.398438 144.90625 L 12.789062 151.554688 L 32.976562 138.636719 L 7.019531 158.765625 L 33.378906 142.78125 L 20.972656 152.386719 L 36.976562 142.449219 L 27.828125 149.476562 L 41.820312 140.679688 L 33.023438 147.375 L 57.292969 131.675781 L 44.285156 141.164062 L 61.460938 129.910156 L 44.738281 142.222656 L 71.664062 124.605469 L 36.75 150.886719 L 83.226562 121.367188 L 67.847656 132.625 L 93.492188 115.78125 L 66.234375 135.859375 L 101.144531 113.214844 L 79.453125 129.15625 L 119.015625 103.199219 L 99.414062 117.359375 L 116.761719 105.949219 L 105.589844 114.066406 L 121.96875 103.273438 L 106.347656 114.65625 L 133.851562 96.527344 L 101.277344 120.375 L 135.570312 98.039062 L 118.203125 110.75 L 150.816406 89.339844 L 130.660156 104.015625 L 155.433594 87.734375 L 131.21875 105.421875 L 180.867188 72.742188 L 137.886719 104.105469 L 217.808594 51.453125 L 167.1875 88.101562 L 193.8125 70.585938 L 177.914062 82.132812 L 218.316406 55.476562 L 187.109375 78.132812 L 215.808594 59.210938 L 200.578125 70.242188 L 246.910156 39.644531 L 187.707031 82.882812 L 257.707031 37.019531 L 231.542969 55.980469 L 257.613281 38.769531 L 233.554688 56.269531 L 274.03125 29.585938 L 243.734375 51.613281 L 273.554688 32.015625 L 249.933594 49.269531 L 289.992188 22.945312 L 265.773438 40.570312 L 297.230469 19.867188 L 269.726562 39.957031 L 271.6875 38.683594 "/>
<path style="fill:none;stroke-width:1.6;stroke-linecap:square;stroke-linejoin:miter;stroke:rgb(36.38916%,61.84845%,78.233337%);stroke-opacity:1;stroke-miterlimit:3.25;" d="M 38.148438 160.054688 L 34.789062 162.996094 L 52.203125 152.941406 L 39.878906 163.496094 L 60.933594 151.34375 L 52.277344 158.519531 L 65.429688 150.757812 L 52.058594 162.011719 L 75.996094 147.945312 L 54.839844 165.800781 L 84.535156 148.691406 L 67.746094 162.726562 L 78.574219 156.574219 L 71.371094 162.78125 L 83.792969 155.699219 L 69.714844 167.976562 L 84.003906 160.046875 L 73.539062 169.296875 L 95.980469 156.71875 L 76.457031 173.945312 L 106.363281 157.339844 L 91.347656 170.355469 L 114.484375 157.269531 L 86.683594 181.5 L 131.769531 156.242188 L 114.09375 171.558594 L 135.320312 159.558594 L 126.007812 167.457031 L 132.132812 163.933594 L 126.632812 168.667969 L 147.308594 156.734375 L 118.933594 181.113281 L 129.152344 175.105469 L 113.171875 188.265625 L 135.21875 175.207031 L 124.628906 183.980469 L 139.039062 175.515625 L 131.125 182.054688 L 148.976562 171.605469 L 132.539062 185.25 L 153.453125 172.964844 L 135.566406 187.808594 L 154.375 176.789062 L 144.371094 185.109375 L 162.632812 174.378906 L 153.304688 182.078125 L 163.394531 176.144531 L 151.066406 186.398438 L 180.457031 169.167969 L 161.183594 185.113281 L 177.296875 175.660156 L 168.78125 182.707031 L 182.644531 174.546875 L 160.359375 193.015625 L 198.191406 170.703125 L 179.226562 186.375 L 210.050781 168.226562 L 190.550781 184.292969 L 213.425781 170.808594 L 193.558594 187.246094 L 213.320312 175.660156 L 190.085938 195.015625 L 233.417969 169.546875 L 209.121094 189.664062 L 236.941406 173.34375 L 225.824219 182.527344 L 240.6875 173.777344 L 230 182.613281 L 255.671875 167.445312 L 234.945312 184.53125 L 265.640625 166.414062 L 245.898438 182.667969 L 262.378906 172.964844 L 247.097656 185.609375 L 276.296875 168.40625 L 250.761719 189.53125 L 280.570312 172.023438 L 256.640625 191.878906 L 299.742188 166.53125 L 271.695312 189.726562 L 308.105469 168.3125 L 286.824219 185.902344 L 325.472656 163.105469 L 289.148438 193.148438 L 339.175781 163.722656 L 320.179688 179.378906 "/>
<g clip-path="url(#clip9)" clip-rule="nonzero">
<path style="fill:none;stroke-width:1.6;stroke-linecap:square;stroke-linejoin:miter;stroke:rgb(99.998474%,74.998474%,0%);stroke-opacity:1;stroke-miterlimit:3.25;" d="M 49.136719 202.480469 L 57.589844 197.300781 L 45.683594 206.832031 L 56.664062 200.242188 L 40.558594 213.75 L 61.253906 201.765625 L 46.160156 214.582031 L 69.652344 201 L 58.441406 210.273438 L 80.972656 196.769531 L 66.019531 208.824219 L 77.710938 201.917969 L 62.28125 214.953125 L 89.386719 199.140625 L 69.210938 216.015625 L 116.394531 187.710938 L 79.601562 217.582031 L 110.195312 199.792969 L 92.957031 214.109375 L 112.3125 202.820312 L 96.6875 215.917969 L 129.703125 196.484375 L 107.285156 215.007812 L 179.441406 172.125 L 164.402344 184.902344 L 177.800781 177.046875 L 167.75 185.519531 L 177.871094 179.601562 L 137.691406 212.257812 L 163.65625 197 L 156.722656 202.789062 L 162.492188 199.433594 L 150.605469 209.414062 L 169.367188 198.484375 L 152.148438 212.90625 L 174.402344 199.949219 L 161.988281 210.417969 L 183.644531 197.832031 L 166.550781 212.203125 L 183.523438 202.402344 L 163.546875 219.183594 L 197.917969 199.1875 L 161.964844 229.191406 L 208.8125 201.949219 L 201.671875 207.917969 L 217.46875 198.617188 L 193.304688 218.855469 L 226.601562 199.519531 L 205.671875 216.984375 L 224.234375 206.304688 L 206.886719 221 L 232.675781 206.167969 L 195.964844 236.933594 L 243.285156 209.53125 L 226.785156 223.496094 L 255.949219 206.679688 L 239.144531 220.796875 L 272.972656 200.828125 L 248.390625 220.917969 L 266.054688 210.722656 L 255.855469 219.28125 L 268.703125 211.855469 L 254.96875 223.417969 L 283.238281 206.996094 L 263 223.882812 L 288.867188 208.875 L 269.210938 225.3125 L 344.535156 181.132812 L 326.488281 196.671875 L 350.527344 182.898438 L 334.558594 196.652344 L 365.878906 178.683594 L 350.546875 191.839844 L 384.863281 172.078125 L 351.894531 200.382812 L 385.453125 181.148438 L 381.648438 184.40625 "/>
</g>
<path style="fill:none;stroke-width:1.6;stroke-linecap:square;stroke-linejoin:miter;stroke:rgb(64.761353%,37.815857%,61.402893%);stroke-opacity:1;stroke-miterlimit:3.25;" d="M 40.058594 150.082031 L 26.921875 160.957031 L 51.339844 146.363281 L 34.445312 160.023438 L 44.9375 153.925781 L 37.601562 160.09375 L 60.546875 146.320312 L 43.257812 160.308594 L 60.066406 150.410156 L 42.953125 164.828125 L 70.066406 149.070312 L 55.40625 161.15625 L 71.117188 151.980469 L 59.777344 161.4375 L 79.578125 149.800781 L 65.660156 161.3125 L 96.457031 142.871094 L 79.894531 156.136719 L 93.640625 147.910156 L 82.117188 157.3125 L 108.5 141.367188 L 73.472656 170.230469 L 150.789062 123.496094 L 98.976562 164.714844 L 147.179688 135.855469 L 130.066406 149.566406 L 148.671875 138.296875 L 120.539062 161.089844 L 161.789062 136.355469 L 133.597656 159.160156 L 184.582031 128.375 L 168.535156 141.203125 L 197.644531 123.390625 L 146.203125 164.988281 L 190.414062 138.582031 L 171.195312 153.953125 L 187.316406 144.113281 L 175.761719 153.285156 L 194.90625 141.589844 L 176.128906 156.550781 L 200.957031 141.425781 L 184.097656 154.832031 L 259.777344 108.875 L 196.199219 160.175781 L 252.257812 126.367188 L 226.878906 146.484375 L 261.59375 125.207031 L 222.910156 156.160156 L 286.367188 117.65625 L 256.113281 141.664062 L 287.382812 122.449219 L 269.699219 136.398438 L 286.425781 126.109375 L 259.433594 147.550781 L 298.0625 123.925781 L 268.222656 147.648438 L 330.347656 109.632812 L 287.023438 143.96875 L 344.761719 108.574219 L 343.671875 109.433594 "/>
<path style="fill:none;stroke-width:1.6;stroke-linecap:square;stroke-linejoin:miter;stroke:rgb(57.157898%,58.647156%,0%);stroke-opacity:1;stroke-miterlimit:3.25;" d="M 29.410156 208.851562 L 43.503906 200.570312 L 36.515625 206.3125 L 55.394531 194.875 L 38.40625 208.582031 L 56.996094 197.523438 L 33.585938 217.519531 L 73.425781 194.476562 L 48.851562 214.84375 L 73.601562 200.664062 L 60.886719 211.335938 L 83.789062 197.90625 L 57.570312 220.265625 L 92.929688 200.183594 L 77.921875 212.78125 L 97.242188 201.589844 L 87.785156 209.496094 L 100.199219 202.261719 L 86.496094 213.832031 L 141.160156 181.03125 L 89.453125 223.597656 L 135.769531 196.933594 L 106.589844 221.53125 L 144.226562 199.828125 L 117.851562 222.09375 L 163.746094 195.59375 L 147.242188 209.542969 L 165.457031 199.046875 L 153.351562 209.359375 L 166.820312 201.632812 L 155.667969 211.15625 L 171.949219 201.820312 L 135.785156 232.550781 L 190.652344 201.164062 L 177.453125 212.472656 L 204.886719 196.625 L 180.351562 217.410156 L 211.484375 199.589844 L 190.003906 217.917969 L 212.667969 205.046875 L 197.839844 217.800781 L 230.90625 198.769531 L 209.554688 216.796875 L 231.429688 204.328125 L 204.921875 227.078125 L 239.882812 207.234375 L 227.972656 217.441406 L 247.277344 206.4375 L 231.082031 220.3125 L 244.605469 212.660156 L 234.941406 220.984375 L 270.976562 200.035156 L 239.625 226.339844 L 263.128906 213.039062 L 247.492188 226.496094 L 276.871094 209.8125 L 249.046875 233.726562 L 287.523438 211.9375 L 272.910156 224.449219 L 280.976562 219.882812 L 261.941406 236.316406 L 300.660156 214.410156 L 281.539062 230.828125 L 298.519531 221.230469 L 276.527344 240.210938 L 308.324219 222.273438 L 288.394531 239.464844 L 328.628906 216.691406 L 313.652344 229.523438 L 327.027344 221.941406 L 289.625 254.152344 L 323.3125 235.144531 "/>
<path style="fill:none;stroke-width:0.2;stroke-linecap:butt;stroke-linejoin:miter;stroke:rgb(39.99939%,39.99939%,39.99939%);stroke-opacity:1;stroke-miterlimit:3.25;" d="M 1 180 L 359 180 "/>
<path style="fill:none;stroke-width:0.2;stroke-linecap:butt;stroke-linejoin:miter;stroke:rgb(39.99939%,39.99939%,39.99939%);stroke-opacity:1;stroke-miterlimit:3.25;" d="M 30.832031 359 L 30.832031 1 "/>
</g>
</svg>
